PathFileType	4	(X/Y/Z)	OpenSim_Sub07_EMGBaseline_Magnet.trc
DataRate	CameraRate	NumFrames	NumMarkers	Units	OrigDataRate	OrigDataStartFrame	OrigNumFrames
100	100	34	8	m	100	854	6828
Frame#	Time	torso_imu_offset_imu	pelvis_imu_offset_imu	tibia_r_imu_offset_imu	femur_r_imu_offset_imu	tibia_l_imu_offset_imu	femur_l_imu_offset_imu	toes_r_imu_offset_imu	toes_l_imu_offset_imu
				X1	Y1	Z1	X2	Y2	Z2	X3	Y3	Z3	X4	Y4	Z4	X5	Y5	Z5	X6	Y6	Z6	X7	Y7	Z7	X8		Y8	Z8	

854	8.53000000	0.92773400	0.20410200	0.03027300	-0.72900400	0.21167000	-0.57348600	-0.61254900	-0.52490200	0.14965800	-0.83569300	-0.20043900	0.02294900	-0.21875000	0.80468800	0.07592800	-0.68335000	0.27490200	0.42309600	-0.67968800	-0.30322300	-0.31372100	-0.74414100	-0.23754900	0.25708000
855	8.54000000	0.92993200	0.20629900	0.02587900	-0.72680700	0.20947300	-0.57788100	-0.59985400	-0.53100600	0.15210000	-0.83740200	-0.21069300	0.02319300	-0.19458000	0.81567400	0.06591800	-0.69628900	0.26391600	0.41650400	-0.67553700	-0.30542000	-0.30957000	-0.73120100	-0.22216800	0.31103500
856	8.55000000	0.92773400	0.20410200	0.02148400	-0.72656200	0.20117200	-0.57763700	-0.59960900	-0.53515600	0.14794900	-0.83276400	-0.22534200	0.02612300	-0.17700200	0.82226600	0.06543000	-0.70483400	0.25732400	0.40307600	-0.67553700	-0.30542000	-0.30761700	-0.71606400	-0.20483400	0.34912100
857	8.56000000	0.92993200	0.20410200	0.02807600	-0.73291000	0.20117200	-0.58227500	-0.59106400	-0.54565400	0.15283200	-0.83447300	-0.24169900	0.01757800	-0.15014600	0.82690400	0.04711900	-0.72192400	0.23974600	0.37866200	-0.67138700	-0.30322300	-0.30957000	-0.70092800	-0.19384800	0.38281200
858	8.57000000	0.92797900	0.19555700	0.03076200	-0.72436500	0.20336900	-0.58252000	-0.59106400	-0.54565400	0.15039100	-0.82592800	-0.24804700	0.01318400	-0.13037100	0.83349600	0.02856400	-0.73242200	0.22436500	0.36743200	-0.67138700	-0.30322300	-0.30761700	-0.68823200	-0.17627000	0.41894500
859	8.58000000	0.92993200	0.19995100	0.02832000	-0.72412100	0.19921900	-0.58447300	-0.58667000	-0.55175800	0.14624000	-0.82568400	-0.25610400	0.01806600	-0.11669900	0.82690400	0.00854500	-0.74316400	0.21557600	0.35864300	-0.67334000	-0.30322300	-0.30761700	-0.67089800	-0.15649400	0.44580100
860	8.59000000	0.93212900	0.19775400	0.02832000	-0.72631800	0.19702100	-0.58447300	-0.58422900	-0.56030300	0.15087900	-0.81713900	-0.26245100	0.01367200	-0.09912100	0.83374000	-0.00317400	-0.74267600	0.20239300	0.34521500	-0.66723600	-0.30322300	-0.30322300	-0.65600600	-0.13891600	0.47729500
861	8.60000000	0.93237300	0.19555700	0.02856400	-0.72631800	0.19702100	-0.58447300	-0.58032200	-0.55395500	0.15087900	-0.82104500	-0.26855500	0.00952100	-0.08569300	0.82934600	-0.02783200	-0.75781200	0.19360400	0.33642600	-0.66528300	-0.29492200	-0.30127000	-0.63232400	-0.11474600	0.50634800
862	8.61000000	0.93237300	0.19140600	0.03295900	-0.72851600	0.19702100	-0.58227500	-0.58178700	-0.56640600	0.14233400	-0.81665000	-0.27490200	0.01416000	-0.08129900	0.83178700	-0.04589800	-0.76171900	0.17846700	0.32324200	-0.66748000	-0.29492200	-0.29931600	-0.64086900	-0.06201200	0.50390600
863	8.62000000	0.93237300	0.19360400	0.03295900	-0.72412100	0.19482400	-0.58911100	-0.57324200	-0.57055700	0.14233400	-0.81420900	-0.28710900	0.00781200	-0.07690400	0.83178700	-0.06811500	-0.77002000	0.16528300	0.32104500	-0.66113300	-0.29296900	-0.30761700	-0.65991200	-0.03784200	0.49267600
864	8.63000000	0.93457000	0.19360400	0.04174800	-0.72631800	0.19702100	-0.57983400	-0.57324200	-0.57470700	0.13574200	-0.81201200	-0.29345700	0.01953100	-0.07446300	0.82519500	-0.08349600	-0.76977500	0.15649400	0.31445300	-0.65307600	-0.29077100	-0.30346700	-0.68554700	-0.01147500	0.45874000
865	8.64000000	0.93457000	0.18725600	0.04199200	-0.72607400	0.19067400	-0.58422900	-0.56469700	-0.57690400	0.13378900	-0.80542000	-0.30371100	0.00854500	-0.07006800	0.82543900	-0.10595700	-0.77832000	0.14770500	0.30322300	-0.65722700	-0.28466800	-0.30151400	-0.70874000	0.01489300	0.42919900
866	8.65000000	0.93676800	0.19140600	0.03515600	-0.73217800	0.18017600	-0.58398400	-0.56665000	-0.58520500	0.13403300	-0.79467800	-0.31201200	0.00878900	-0.06787100	0.82543900	-0.12841800	-0.78686500	0.13671900	0.29663100	-0.65502900	-0.28881800	-0.30151400	-0.72534200	0.03491200	0.39770500
867	8.66000000	0.93481400	0.18286100	0.04663100	-0.72802700	0.18432600	-0.58862300	-0.55810500	-0.58520500	0.12719700	-0.79663100	-0.31396500	0.01806600	-0.08569300	0.82324200	-0.14379900	-0.79077100	0.12597700	0.28564500	-0.65722700	-0.28271500	-0.30566400	-0.73925800	0.05029300	0.37744100
868	8.67000000	0.93481400	0.18505900	0.04663100	-0.72998000	0.17797900	-0.58837900	-0.56005900	-0.58935500	0.12744100	-0.79858400	-0.32446300	0.01391600	-0.08349600	0.81665000	-0.16577100	-0.79028300	0.10864300	0.28344700	-0.64892600	-0.28857400	-0.30761700	-0.74853500	0.05932600	0.35034200
869	8.68000000	0.93676800	0.18505900	0.04443400	-0.73193400	0.17382800	-0.58593800	-0.55590800	-0.59350600	0.13427700	-0.79199200	-0.32836900	0.01416000	-0.10131800	0.81225600	-0.17871100	-0.79882800	0.10400400	0.27685500	-0.64257800	-0.28857400	-0.30761700	-0.76928700	0.07251000	0.32104500
870	8.69000000	0.93676800	0.18725600	0.05078100	-0.73413100	0.17382800	-0.58374000	-0.55151400	-0.59570300	0.12768600	-0.79394500	-0.33886700	0.00293000	-0.11669900	0.80566400	-0.19824200	-0.80493200	0.08667000	0.26806600	-0.64672900	-0.29052700	-0.30957000	-0.77368200	0.07031200	0.29638700
871	8.70000000	0.93286100	0.17651400	0.05127000	-0.73168900	0.16552700	-0.59033200	-0.55151400	-0.59985400	0.13452100	-0.78515600	-0.34692400	0.00561500	-0.13452100	0.80346700	-0.20459000	-0.80029300	0.07812500	0.26806600	-0.64257800	-0.28637700	-0.31591800	-0.78686500	0.06591800	0.26928700
872	8.71000000	0.93701200	0.17871100	0.04467800	-0.73388700	0.16552700	-0.58789100	-0.54931600	-0.60180700	0.12573200	-0.78295900	-0.35107400	-0.00341800	-0.16113300	0.79248000	-0.20385700	-0.80444300	0.06933600	0.26831100	-0.63818400	-0.29443400	-0.31787100	-0.79589800	0.06616200	0.22900400
873	8.72000000	0.93066400	0.18090800	0.05102500	-0.73608400	0.16333000	-0.59033200	-0.54931600	-0.60180700	0.12573200	-0.77832000	-0.36352500	-0.00293000	-0.18335000	0.79028300	-0.19677700	-0.80835000	0.05835000	0.26147500	-0.64038100	-0.29248000	-0.32202100	-0.81103500	0.05517600	0.19067400
874	8.73000000	0.93286100	0.17651400	0.05346700	-0.73584000	0.15502900	-0.58984400	-0.54516600	-0.60180700	0.12573200	-0.78027300	-0.36767600	-0.00952100	-0.19897500	0.78588900	-0.18969700	-0.81030300	0.04956100	0.26171900	-0.64257800	-0.28833000	-0.33471700	-0.81738300	0.04443400	0.15258800
875	8.74000000	0.93261700	0.18286100	0.05542000	-0.73388700	0.16113300	-0.59008800	-0.54272500	-0.61010700	0.12158200	-0.77587900	-0.38012700	-0.01367200	-0.22802700	0.78784200	-0.16015600	-0.81225600	0.04101600	0.25268600	-0.63842800	-0.29028300	-0.33667000	-0.82128900	0.02929700	0.11889600
876	8.75000000	0.93261700	0.18090800	0.05322300	-0.73364300	0.15502900	-0.58520500	-0.54687500	-0.61230500	0.12817400	-0.77148400	-0.38623000	-0.02270500	-0.25903300	0.77880900	-0.11914100	-0.80981400	0.03222700	0.25293000	-0.64233400	-0.29443400	-0.34912100	-0.82714800	0.00732400	0.08081100
877	8.76000000	0.93286100	0.17456100	0.05346700	-0.72924800	0.15283200	-0.58984400	-0.54443400	-0.61865200	0.11938500	-0.76709000	-0.39038100	-0.02710000	-0.29003900	0.77417000	-0.07153300	-0.80932600	0.02368200	0.25512700	-0.64428700	-0.30273400	-0.34497100	-0.82885700	-0.01001000	0.05615200
878	8.77000000	0.93261700	0.18090800	0.05542000	-0.73779300	0.15283200	-0.59692400	-0.54028300	-0.62060500	0.11279300	-0.76269500	-0.39648400	-0.03833000	-0.31640600	0.76513700	-0.03271500	-0.82251000	0.01684600	0.25976600	-0.64428700	-0.29858400	-0.35742200	-0.81933600	-0.02734400	0.02246100
879	8.78000000	0.92822300	0.18505900	0.05297900	-0.73120100	0.15087900	-0.59448200	-0.54248000	-0.61645500	0.11499000	-0.76245100	-0.40258800	-0.04028300	-0.35180700	0.75415000	0.00170900	-0.81567400	0.01269500	0.25317400	-0.64013700	-0.30249000	-0.36157200	-0.82690400	-0.06030300	-0.01123000
880	8.79000000	0.93481400	0.17871100	0.05786100	-0.73120100	0.15283200	-0.60156200	-0.53393600	-0.62280300	0.11523400	-0.75390600	-0.41088900	-0.04443400	-0.38037100	0.73632800	0.02758800	-0.81103500	0.00830100	0.25976600	-0.64624000	-0.30468800	-0.36987300	-0.81494100	-0.07983400	-0.03808600
881	8.80000000	0.94140600	0.17456100	0.06250000	-0.72900400	0.14868200	-0.60131800	-0.52734400	-0.63110400	0.10888700	-0.75170900	-0.41699200	-0.04663100	-0.41552700	0.71630900	0.03808600	-0.81958000	-0.00268600	0.25317400	-0.65429700	-0.31079100	-0.37402300	-0.80737300	-0.10180700	-0.06274400
882	8.81000000	0.93481400	0.18286100	0.05761700	-0.72900400	0.14672900	-0.60351600	-0.53149400	-0.62890600	0.10205100	-0.74511700	-0.42529300	-0.05761700	-0.45288100	0.69433600	0.04858400	-0.81274400	-0.00903300	0.26001000	-0.66284200	-0.31079100	-0.38232400	-0.80664100	-0.12353500	-0.09399400
883	8.82000000	0.93066400	0.17456100	0.06445300	-0.72460900	0.14868200	-0.60595700	-0.52710000	-0.63720700	0.10449200	-0.73852500	-0.43359400	-0.05957000	-0.47900400	0.67016600	0.05444300	-0.81250000	-0.01562500	0.25561500	-0.66064500	-0.30883800	-0.38452100	-0.79492200	-0.13867200	-0.11865200
884	8.83000000	0.93530300	0.17016600	0.06030300	-0.72680700	0.14672900	-0.60815400	-0.52710000	-0.63720700	0.10229500	-0.73632800	-0.43969700	-0.06176800	-0.51196300	0.65014600	0.05590800	-0.81250000	-0.01757800	0.26025400	-0.67114300	-0.31103500	-0.39697300	-0.78540000	-0.15380900	-0.15014600
885	8.84000000	0.93261700	0.18090800	0.06201200	-0.71826200	0.14672900	-0.60815400	-0.51879900	-0.63525400	0.10229500	-0.72949200	-0.45410200	-0.06787100	-0.53588900	0.62158200	0.05102500	-0.80810500	-0.01757800	0.26464800	-0.67700200	-0.32128900	-0.39892600	-0.77807600	-0.16894500	-0.17700200
886	8.85000000	0.93505900	0.17456100	0.06884800	-0.72241200	0.14038100	-0.60327100	-0.52050800	-0.64355500	0.10253900	-0.72534200	-0.45605500	-0.07006800	-0.55761700	0.60400400	0.04321300	-0.80810500	-0.01538100	0.26904300	-0.68335000	-0.31713900	-0.40942400	-0.77124000	-0.17334000	-0.20385700
887	8.86000000	0.93920900	0.17456100	0.06909200	-0.72241200	0.14672900	-0.61279300	-0.52026400	-0.64990200	0.09814500	-0.71875000	-0.46435500	-0.06982400	-0.58374000	0.57763700	0.03808600	-0.80371100	-0.01538100	0.26904300	-0.68750000	-0.31713900	-0.41357400	-0.76196300	-0.18188500	-0.23535200
